<svg xmlns="http://www.w3.org/2000/svg" width="36.766" height="29.409" viewBox="0 0 36.766 29.409">
  <path id="Icon_awesome-tshirt" data-name="Icon awesome-tshirt" d="M36.255,5.543,25.072,0c-1.155,1.6-3.711,2.711-6.692,2.711S12.843,1.6,11.688,0L.5,5.543A.926.926,0,0,0,.091,6.778l3.286,6.577a.926.926,0,0,0,1.235.414l3.251-1.591A.917.917,0,0,1,9.184,13V27.571a1.836,1.836,0,0,0,1.838,1.838h14.7a1.836,1.836,0,0,0,1.838-1.838V13a.92.92,0,0,1,1.321-.827l3.251,1.591a.916.916,0,0,0,1.235-.414l3.291-6.571a.917.917,0,0,0-.408-1.235Z" transform="translate(0.004)" fill="#e82c32"/>
</svg>
